# Blender v2.92.0 OBJ File: ''
# www.blender.org
mtllib katana_blade.mtl
o katana
v -0.005434 -0.018543 -0.154058
v -0.004524 0.004430 -0.154057
v 0.000000 0.012456 -0.154057
v 0.005434 -0.018543 -0.154058
v 0.004524 0.004430 -0.154057
v -0.005434 -0.019098 -0.251189
v -0.005434 -0.020900 -0.399546
v 0.005434 -0.020900 -0.399546
v 0.005434 -0.019098 -0.251189
v 0.004524 -0.038192 -0.957240
v 0.000000 -0.030700 -0.962098
v 0.000000 -0.019603 -0.877737
v 0.004524 -0.027455 -0.876092
v 0.004524 0.003825 -0.251189
v 0.000000 0.011818 -0.251189
v 0.004524 0.002040 -0.400825
v 0.000000 0.010055 -0.401193
v 0.004524 -0.003339 -0.550769
v 0.000000 0.004669 -0.551256
v 0.005434 -0.026285 -0.549602
v 0.005434 -0.034635 -0.719804
v 0.004524 -0.012952 -0.723473
v 0.000000 -0.005418 -0.724961
v 0.000000 -0.066607 -1.008816
v 0.005434 -0.064081 -0.984981
v -0.004524 -0.012952 -0.723473
v -0.004524 -0.003339 -0.550769
v 0.005434 -0.049943 -0.871383
v -0.005434 -0.026285 -0.549602
v -0.004524 0.002040 -0.400825
v -0.004524 0.003825 -0.251189
v -0.005434 -0.049943 -0.871383
v -0.005434 -0.064081 -0.984981
v -0.004524 -0.038192 -0.957240
v -0.005434 -0.034635 -0.719804
v -0.004524 -0.027455 -0.876092
vt 0.625000 0.209784
vt 0.625000 0.153691
vt 0.625000 0.153691
vt 0.625000 0.209784
vt 0.818487 0.004223
vt 0.875000 0.000000
vt 0.875000 0.044924
vt 0.818487 0.044924
vt 0.875000 0.238313
vt 0.818443 0.238313
vt 0.818480 0.209728
vt 0.875000 0.209784
vt 0.818487 0.153662
vt 0.875000 0.153691
vt 0.818487 0.126424
vt 0.875000 0.126394
vt 0.625000 0.126394
vt 0.625000 0.072641
vt 0.818461 0.072717
vt 0.875000 0.072641
vt 0.500000 1.000000
vt 0.500000 0.750000
vt 0.625000 0.757008
vt 0.625000 0.950495
vt 0.818461 0.072717
vt 0.818487 0.126424
vt 0.625000 0.044924
vt 0.625000 0.004223
vt 0.625000 0.126394
vt 0.818487 0.153662
vt 0.818480 0.209728
vt 0.625000 0.238313
vt 0.818443 0.238313
vt 0.500000 0.000000
vt 0.625000 0.044924
vt 0.625000 0.004223
vt 0.625000 0.950495
vt 0.625000 0.757008
vt 0.625000 0.072641
vt 0.625000 0.238313
vt 0.818487 0.004223
vt 0.818487 0.044924
vn 0.0000 -1.0000 0.0082
vn -0.0000 -0.9997 0.0243
vn 0.9856 0.1627 -0.0449
vn 0.8943 0.4237 -0.1439
vn 0.8685 0.4926 -0.0560
vn 0.9838 0.1782 -0.0185
vn 0.8707 0.4918 -0.0031
vn 0.9833 0.1819 -0.0018
vn 0.9834 0.1814 -0.0015
vn 0.8707 0.4919 -0.0045
vn 0.9945 0.1048 -0.0008
vn 0.9945 0.1048 -0.0026
vn 0.9831 0.1828 -0.0045
vn 0.8708 0.4914 -0.0118
vn 0.9829 0.1840 -0.0119
vn 0.8686 0.4950 -0.0218
vn 0.9944 0.1052 -0.0043
vn 0.9944 0.1056 -0.0081
vn 0.9818 0.1894 -0.0112
vn 0.8654 0.4996 -0.0392
vn 0.9721 0.0678 -0.2246
vn -0.8687 0.4949 -0.0219
vn -0.8654 0.4996 -0.0395
vn -0.9818 0.1888 -0.0180
vn -0.9783 0.2070 -0.0067
vn 0.9944 0.1052 -0.0118
vn 0.9944 0.1052 -0.0124
vn -0.9886 0.1506 -0.0012
vn -0.9945 0.1048 -0.0026
vn -0.9831 0.1828 -0.0045
vn -0.9834 0.1814 -0.0025
vn -0.9945 0.1048 -0.0008
vn -0.9945 0.1048 -0.0002
vn -0.9833 0.1819 -0.0012
vn -0.0243 -0.9927 0.1184
vn -0.0297 -0.9921 0.1215
vn -0.0156 -0.9936 0.1119
vn 0.0155 -0.9936 0.1120
vn 0.0298 -0.9921 0.1216
vn -0.9721 0.0678 -0.2246
vn -0.9856 0.1627 -0.0449
vn -0.8943 0.4237 -0.1439
vn -0.2231 -0.9741 0.0362
vn 0.0007 -0.9969 0.0792
vn 0.0000 -0.9970 0.0770
vn 0.0000 -0.9992 0.0405
vn 0.0000 -1.0000 0.0057
vn -0.9838 0.1780 -0.0206
vn -0.8685 0.4926 -0.0560
vn -0.8707 0.4918 -0.0031
vn -0.8707 0.4919 -0.0045
vn -0.8708 0.4914 -0.0118
vn -0.9944 0.1052 -0.0118
vn -0.9944 0.1047 -0.0135
vn -0.9944 0.1052 -0.0124
vn 0.9945 0.1048 -0.0006
vn -0.2263 0.0637 0.9720
vn 0.0653 -0.0000 0.9979
vn -0.0653 0.0003 0.9979
vn -0.0423 0.0750 0.9963
vn 0.0000 0.0000 1.0000
usemtl None
s 1
f 6/1/1 7/2/2 8/3/2 9/4/1
f 10/5/3 11/6/4 12/7/5 13/8/6
f 3/9/7 5/10/8 14/11/9 15/12/10
f 9/4/11 8/3/12 16/13/13 14/11/9
f 17/14/14 16/13/13 18/15/15 19/16/16
f 20/17/17 21/18/18 22/19/19 18/15/15
f 23/20/20 22/19/19 13/8/6 12/7/5
f 24/21/21 11/22/4 10/23/3 25/24/21
f 8/3/12 20/17/17 18/15/15 16/13/13
f 19/16/22 23/20/23 26/25/24 27/26/25
f 28/27/26 25/28/27 10/5/3 13/8/6
f 29/29/28 7/2/29 30/30/30 27/26/25
f 31/31/31 6/1/32 1/32/33 2/33/34
f 24/34/35 25/28/36 28/27/37 32/35/38 33/36/39
f 24/21/40 33/37/40 34/38/41 11/22/42
f 29/29/43 35/39/44 21/18/45 20/17/46
f 8/3/2 7/2/2 29/29/43 20/17/46
f 14/11/9 16/13/13 17/14/14 15/12/10
f 21/18/45 35/39/44 32/35/38 28/27/37
f 1/32/47 6/1/1 9/4/1 4/40/47
f 34/41/41 36/42/48 12/7/49 11/6/42
f 3/9/50 15/12/51 31/31/31 2/33/34
f 17/14/52 19/16/22 27/26/25 30/30/30
f 18/15/15 22/19/19 23/20/20 19/16/16
f 23/20/23 12/7/49 36/42/48 26/25/24
f 32/35/53 35/39/54 26/25/24 36/42/48
f 33/36/55 32/35/53 36/42/48 34/41/41
f 15/12/51 17/14/52 30/30/30 31/31/31
f 21/18/18 28/27/26 13/8/6 22/19/19
f 5/10/8 4/40/56 9/4/11 14/11/9
f 6/1/32 31/31/31 30/30/30 7/2/29
f 26/25/24 35/39/54 29/29/28 27/26/25
f 2/33/57 1/32/58 4/40/59 5/10/60
f 3/9/61 2/33/57 5/10/60
