# This file uses centimeters as units for non-parametric coordinates.

mtllib kunai.mtl
g default
v 0.000000 -0.329318 0.046311
v 0.046192 -0.331900 0.000000
v 0.000000 0.145654 0.046311
v 0.046311 0.145654 0.000000
v -0.046311 0.145654 0.000000
v 0.000000 0.145654 -0.046311
v -0.046192 -0.331900 0.000000
v 0.000000 -0.329318 -0.046311
v 0.000000 0.335267 0.163971
v 0.090804 0.335267 0.000000
v 0.000000 0.335267 -0.163971
v -0.090804 0.335267 0.000000
v 0.000000 1.012790 0.000000
v -0.000000 -0.417727 -0.046940
v -0.000000 -0.464667 -0.066383
v -0.000000 -0.511608 -0.046940
v -0.000000 -0.531051 0.000000
v -0.000000 -0.511608 0.046940
v -0.000000 -0.464667 0.066383
v -0.000000 -0.417727 0.046940
v -0.000000 -0.398284 0.000000
v -0.046192 -0.402080 -0.062587
v -0.046192 -0.464667 -0.088511
v -0.046192 -0.527254 -0.062587
v -0.046192 -0.553179 0.000000
v -0.046192 -0.527254 0.062587
v -0.046192 -0.464667 0.088511
v -0.046192 -0.402080 0.062587
v -0.046192 -0.376156 0.000000
v -0.046192 -0.370787 -0.093880
v -0.046192 -0.464667 -0.132767
v -0.046192 -0.558548 -0.093880
v -0.046192 -0.597434 0.000000
v -0.046192 -0.558548 0.093880
v -0.046192 -0.464667 0.132767
v -0.046192 -0.370787 0.093880
v -0.000000 -0.355140 -0.109527
v -0.000000 -0.464667 -0.154895
v -0.000000 -0.574194 -0.109527
v -0.000000 -0.619562 0.000000
v -0.000000 -0.574194 0.109527
v -0.000000 -0.464667 0.154895
v -0.000000 -0.355140 0.109527
v -0.000000 -0.309773 0.000000
v 0.046192 -0.370787 -0.093880
v 0.046192 -0.464667 -0.132767
v 0.046192 -0.558548 -0.093880
v 0.046192 -0.597434 0.000000
v 0.046192 -0.558548 0.093880
v 0.046192 -0.464667 0.132767
v 0.046192 -0.370787 0.093880
v 0.046192 -0.402080 -0.062587
v 0.046192 -0.464667 -0.088511
v 0.046192 -0.527254 -0.062587
v 0.046192 -0.553179 0.000000
v 0.046192 -0.527254 0.062587
v 0.046192 -0.464667 0.088511
v 0.046192 -0.402080 0.062587
v 0.046192 -0.376156 0.000000
vt 0.375404 0.001310
vt 0.625000 0.003646
vt 0.375000 0.250000
vt 0.625000 0.250000
vt 0.375000 0.500000
vt 0.625000 0.500000
vt 0.376758 0.748081
vt 0.623343 0.749799
vt 0.377494 0.995695
vt 0.620157 0.995510
vt 0.872063 0.001336
vt 0.875000 0.250000
vt 0.128162 0.003672
vt 0.125000 0.250000
vt 0.375000 0.250000
vt 0.625000 0.250000
vt 0.625000 0.500000
vt 0.375000 0.500000
vt 0.500000 0.375000
vt 0.125000 1.000000
vt 0.000000 1.000000
vt 0.000000 0.833333
vt 0.125000 0.833333
vt 0.250000 1.000000
vt 0.250000 0.833333
vt 0.375000 1.000000
vt 0.375000 0.833333
vt 0.500000 1.000000
vt 0.500000 0.833333
vt 0.625000 1.000000
vt 0.625000 0.833333
vt 0.750000 1.000000
vt 0.750000 0.833333
vt 0.875000 1.000000
vt 0.875000 0.833333
vt 1.000000 1.000000
vt 1.000000 0.833333
vt 0.000000 0.666667
vt 0.125000 0.666667
vt 0.250000 0.666667
vt 0.375000 0.666667
vt 0.500000 0.666667
vt 0.625000 0.666667
vt 0.750000 0.666667
vt 0.875000 0.665101
vt 1.000000 0.666667
vt 0.000000 0.500000
vt 0.125000 0.500000
vt 0.250000 0.500000
vt 0.375000 0.500000
vt 0.500000 0.500000
vt 0.625000 0.500000
vt 0.750000 0.500000
vt 0.875000 0.500000
vt 1.000000 0.500000
vt 0.000000 0.333333
vt 0.125000 0.333333
vt 0.250000 0.333333
vt 0.375000 0.333333
vt 0.500000 0.333333
vt 0.625000 0.333333
vt 0.750000 0.333333
vt 0.875000 0.334899
vt 1.000000 0.333333
vt 0.000000 0.166667
vt 0.125000 0.166667
vt 0.250000 0.166667
vt 0.375000 0.166667
vt 0.500000 0.166667
vt 0.625000 0.166667
vt 0.750000 0.166667
vt 0.875000 0.166667
vt 1.000000 0.166667
vt 0.000000 -0.000000
vt 0.125000 -0.000000
vt 0.250000 -0.000000
vt 0.375000 -0.000000
vt 0.500000 -0.000000
vt 0.625000 -0.000000
vt 0.750000 -0.000000
vt 0.875000 -0.000000
vt 1.000000 -0.000000
vt 0.827944 0.500000
vt 0.918768 0.500000
vn 0.707560 -0.000088 0.706653
vn 0.707560 -0.000088 0.706654
vn 0.707560 -0.000088 0.706654
vn 0.707560 -0.000088 0.706653
vn -0.707560 -0.000088 -0.706653
vn -0.707560 -0.000088 -0.706653
vn -0.707560 -0.000088 -0.706653
vn -0.707560 -0.000088 -0.706653
vn 0.000000 -1.000000 0.000000
vn 0.000000 -1.000000 0.000000
vn 0.000000 -1.000000 0.000000
vn 0.000000 -1.000000 0.000000
vn 0.707560 -0.000088 -0.706653
vn 0.707560 -0.000088 -0.706653
vn 0.707560 -0.000088 -0.706653
vn 0.707560 -0.000088 -0.706653
vn -0.707560 -0.000088 0.706653
vn -0.707560 -0.000088 0.706653
vn -0.707560 -0.000088 0.706653
vn -0.707560 -0.000088 0.706653
vn 0.809156 -0.258633 0.527613
vn 0.809156 -0.258633 0.527613
vn 0.865260 0.014667 0.501108
vn 0.866290 0.028401 0.498733
vn 0.809156 -0.258633 -0.527613
vn 0.809156 -0.258633 -0.527613
vn 0.866290 0.028401 -0.498733
vn 0.865260 0.014667 -0.501108
vn -0.809156 -0.258633 -0.527613
vn -0.809156 -0.258633 -0.527613
vn -0.865260 0.014667 -0.501108
vn -0.866290 0.028401 -0.498733
vn -0.809156 -0.258633 0.527613
vn -0.809156 -0.258633 0.527613
vn -0.866290 0.028401 0.498733
vn -0.865260 0.014667 0.501108
vn 0.868864 0.116448 0.481160
vn 0.868864 0.116448 -0.481160
vn -0.868864 0.116448 -0.481160
vn -0.868864 0.116448 0.481160
vn -0.404711 -0.349943 0.844837
vn -0.404711 -0.349943 0.844837
vn -0.404710 -0.349943 0.844837
vn -0.404711 -0.349943 0.844837
vn -0.404710 0.349943 0.844837
vn -0.404710 0.349943 0.844837
vn -0.404710 0.349943 0.844837
vn -0.404710 0.349943 0.844837
vn -0.404710 0.844837 0.349944
vn -0.404710 0.844837 0.349944
vn -0.404710 0.844837 0.349944
vn -0.404710 0.844837 0.349944
vn -0.404710 0.844837 -0.349944
vn -0.404710 0.844837 -0.349944
vn -0.404710 0.844837 -0.349944
vn -0.404710 0.844837 -0.349944
vn -0.404710 0.349943 -0.844837
vn -0.404710 0.349943 -0.844837
vn -0.404710 0.349943 -0.844837
vn -0.404710 0.349943 -0.844837
vn -0.404710 -0.349943 -0.844837
vn -0.404710 -0.349943 -0.844837
vn -0.404710 -0.349943 -0.844837
vn -0.404710 -0.349943 -0.844837
vn -0.404710 -0.844837 -0.349943
vn -0.404710 -0.844837 -0.349943
vn -0.404710 -0.844837 -0.349943
vn -0.404710 -0.844837 -0.349943
vn -0.404710 -0.844837 0.349943
vn -0.404710 -0.844837 0.349943
vn -0.404710 -0.844837 0.349943
vn -0.404711 -0.844837 0.349943
vn -1.000000 0.000000 -0.000000
vn -1.000000 0.000000 -0.000000
vn -1.000000 0.000000 -0.000000
vn -1.000000 0.000000 -0.000000
vn -1.000000 -0.000000 -0.000000
vn -1.000000 -0.000000 -0.000000
vn -1.000000 -0.000000 -0.000000
vn -1.000000 -0.000000 -0.000000
vn -1.000000 0.000000 -0.000000
vn -1.000000 0.000000 -0.000000
vn -1.000000 0.000000 -0.000000
vn -1.000000 0.000000 -0.000000
vn -1.000000 -0.000000 0.000000
vn -1.000000 -0.000000 0.000000
vn -1.000000 -0.000000 0.000000
vn -1.000000 -0.000000 0.000000
vn -1.000000 -0.000000 0.000000
vn -1.000000 -0.000000 0.000000
vn -1.000000 -0.000000 0.000000
vn -1.000000 -0.000000 0.000000
vn -1.000000 0.000000 0.000000
vn -1.000000 0.000000 0.000000
vn -1.000000 0.000000 0.000000
vn -1.000000 0.000000 0.000000
vn -1.000000 0.000000 0.000000
vn -1.000000 0.000000 0.000000
vn -1.000000 0.000000 0.000000
vn -1.000000 0.000000 0.000000
vn -1.000000 0.000000 -0.000000
vn -1.000000 0.000000 -0.000000
vn -1.000000 0.000000 -0.000000
vn -1.000000 0.000000 -0.000000
vn -0.404710 0.349943 -0.844837
vn -0.404710 0.349943 -0.844837
vn -0.404710 0.349943 -0.844837
vn -0.404710 0.349943 -0.844837
vn -0.404710 -0.349943 -0.844837
vn -0.404710 -0.349943 -0.844837
vn -0.404710 -0.349943 -0.844837
vn -0.404710 -0.349943 -0.844837
vn -0.404710 -0.844837 -0.349943
vn -0.404710 -0.844837 -0.349943
vn -0.404710 -0.844837 -0.349943
vn -0.404710 -0.844837 -0.349943
vn -0.404710 -0.844837 0.349943
vn -0.404710 -0.844837 0.349943
vn -0.404710 -0.844837 0.349943
vn -0.404710 -0.844837 0.349943
vn -0.404710 -0.349943 0.844837
vn -0.404710 -0.349943 0.844837
vn -0.404710 -0.349943 0.844837
vn -0.404710 -0.349943 0.844837
vn -0.404710 0.349943 0.844837
vn -0.404710 0.349943 0.844837
vn -0.404710 0.349943 0.844837
vn -0.404710 0.349943 0.844837
vn -0.401101 0.846996 0.348878
vn -0.401101 0.846996 0.348878
vn -0.401101 0.846996 0.348878
vn -0.401101 0.846996 0.348878
vn -0.401101 0.846996 -0.348879
vn -0.401101 0.846996 -0.348879
vn -0.401101 0.846996 -0.348879
vn -0.401101 0.846996 -0.348879
vn 0.404710 0.349943 -0.844837
vn 0.404710 0.349943 -0.844837
vn 0.404710 0.349943 -0.844837
vn 0.404710 0.349943 -0.844837
vn 0.404710 -0.349943 -0.844837
vn 0.404710 -0.349943 -0.844837
vn 0.404710 -0.349943 -0.844837
vn 0.404710 -0.349943 -0.844837
vn 0.404710 -0.844837 -0.349943
vn 0.404710 -0.844837 -0.349943
vn 0.404710 -0.844837 -0.349943
vn 0.404710 -0.844837 -0.349943
vn 0.404710 -0.844837 0.349943
vn 0.404710 -0.844837 0.349943
vn 0.404710 -0.844837 0.349943
vn 0.404710 -0.844837 0.349943
vn 0.404710 -0.349943 0.844837
vn 0.404710 -0.349943 0.844837
vn 0.404710 -0.349943 0.844837
vn 0.404710 -0.349943 0.844837
vn 0.404710 0.349943 0.844837
vn 0.404710 0.349943 0.844837
vn 0.404710 0.349943 0.844837
vn 0.404710 0.349943 0.844837
vn 0.401101 0.846996 0.348878
vn 0.401101 0.846996 0.348878
vn 0.401101 0.846996 0.348878
vn 0.401101 0.846996 0.348878
vn 0.401101 0.846996 -0.348878
vn 0.401101 0.846996 -0.348878
vn 0.401101 0.846996 -0.348878
vn 0.401101 0.846996 -0.348878
vn 1.000000 -0.000000 0.000000
vn 1.000000 -0.000000 0.000000
vn 1.000000 -0.000000 0.000000
vn 1.000000 -0.000000 0.000000
vn 1.000000 0.000000 0.000000
vn 1.000000 0.000000 0.000000
vn 1.000000 0.000000 0.000000
vn 1.000000 0.000000 0.000000
vn 1.000000 0.000000 0.000000
vn 1.000000 0.000000 0.000000
vn 1.000000 0.000000 0.000000
vn 1.000000 0.000000 0.000000
vn 1.000000 0.000000 -0.000000
vn 1.000000 0.000000 -0.000000
vn 1.000000 0.000000 -0.000000
vn 1.000000 0.000000 -0.000000
vn 1.000000 0.000000 -0.000000
vn 1.000000 0.000000 -0.000000
vn 1.000000 0.000000 -0.000000
vn 1.000000 0.000000 -0.000000
vn 1.000000 -0.000000 -0.000000
vn 1.000000 -0.000000 -0.000000
vn 1.000000 -0.000000 -0.000000
vn 1.000000 -0.000000 -0.000000
vn 1.000000 -0.000000 -0.000000
vn 1.000000 -0.000000 -0.000000
vn 1.000000 -0.000000 -0.000000
vn 1.000000 -0.000000 -0.000000
vn 1.000000 -0.000000 0.000000
vn 1.000000 -0.000000 0.000000
vn 1.000000 -0.000000 0.000000
vn 1.000000 -0.000000 0.000000
vn 0.404710 -0.349943 0.844837
vn 0.404710 -0.349943 0.844837
vn 0.404710 -0.349943 0.844837
vn 0.404710 -0.349943 0.844837
vn 0.404710 0.349943 0.844837
vn 0.404710 0.349943 0.844837
vn 0.404710 0.349943 0.844837
vn 0.404710 0.349943 0.844837
vn 0.404710 0.844837 0.349944
vn 0.404710 0.844837 0.349944
vn 0.404710 0.844837 0.349944
vn 0.404710 0.844837 0.349944
vn 0.404710 0.844837 -0.349944
vn 0.404710 0.844837 -0.349944
vn 0.404710 0.844837 -0.349944
vn 0.404710 0.844837 -0.349944
vn 0.404710 0.349943 -0.844837
vn 0.404710 0.349943 -0.844837
vn 0.404710 0.349943 -0.844837
vn 0.404710 0.349943 -0.844837
vn 0.404710 -0.349943 -0.844837
vn 0.404710 -0.349943 -0.844837
vn 0.404710 -0.349943 -0.844837
vn 0.404710 -0.349943 -0.844837
vn 0.404710 -0.844837 -0.349943
vn 0.404710 -0.844837 -0.349943
vn 0.404710 -0.844837 -0.349943
vn 0.404710 -0.844837 -0.349943
vn 0.404710 -0.844837 0.349943
vn 0.404710 -0.844837 0.349943
vn 0.404710 -0.844837 0.349943
vn 0.404710 -0.844837 0.349943
vn 0.403766 0.842866 0.355739
vn 0.403766 0.842866 0.355739
vn 0.403766 0.842866 0.355739
vn -0.403766 0.842866 0.355739
vn -0.403766 0.842866 0.355739
vn -0.403766 0.842866 0.355739
vn -0.403766 0.842866 -0.355738
vn -0.403766 0.842866 -0.355738
vn -0.403766 0.842866 -0.355738
vn 0.403766 0.842866 -0.355739
vn 0.403766 0.842866 -0.355739
vn 0.403766 0.842866 -0.355739
s off
g Shuriken1
usemtl initialShadingGroup
f 1/1/1 2/2/2 4/4/3 3/3/4
f 5/5/5 6/6/6 8/8/7 7/7/8
f 7/7/9 8/8/10 2/10/11 1/9/12
f 2/2/13 8/11/14 6/12/15 4/4/16
f 7/13/17 1/1/18 3/3/19 5/14/20
s 1
f 3/3/21 4/4/22 10/16/23 9/15/24
s 2
f 4/4/25 6/6/26 11/17/27 10/16/28
s 3
f 6/6/29 5/5/30 12/18/31 11/17/32
s 4
f 5/5/33 3/3/34 9/15/35 12/18/36
s 1
f 9/15/24 10/16/23 13/19/37
s 2
f 10/16/28 11/17/27 13/19/38
s 3
f 11/17/32 12/18/31 13/19/39
s 4
f 12/18/36 9/15/35 13/19/40
s off
f 15/20/41 14/21/42 22/22/43 23/23/44
f 16/24/45 15/20/46 23/23/47 24/25/48
f 17/26/49 16/24/50 24/25/51 25/27/52
f 18/28/53 17/26/54 25/27/55 26/29/56
f 19/30/57 18/28/58 26/29/59 27/31/60
f 20/32/61 19/30/62 27/31/63 28/33/64
f 21/34/65 20/32/66 28/33/67 29/35/68
f 14/36/69 21/34/70 29/35/71 22/37/72
f 23/23/73 22/22/74 30/38/75 31/39/76
f 24/25/77 23/23/78 31/39/79 32/40/80
f 25/27/81 24/25/82 32/40/83 33/41/84
f 26/29/85 25/27/86 33/41/87 34/42/88
f 27/31/89 26/29/90 34/42/91 35/43/92
f 28/33/93 27/31/94 35/43/95 36/44/96
f 29/35/97 28/33/98 36/44/99 7/45/100
f 22/37/101 29/35/102 7/45/103 30/46/104
f 31/39/105 30/38/106 37/47/107 38/48/108
f 32/40/109 31/39/110 38/48/111 39/49/112
f 33/41/113 32/40/114 39/49/115 40/50/116
f 34/42/117 33/41/118 40/50/119 41/51/120
f 35/43/121 34/42/122 41/51/123 42/52/124
f 36/44/125 35/43/126 42/52/127 43/53/128
f 7/45/129 36/44/130 43/53/131 1/83/132
f 30/46/133 7/45/134 8/84/135 37/55/136
f 38/48/137 37/47/138 45/56/139 46/57/140
f 39/49/141 38/48/142 46/57/143 47/58/144
f 40/50/145 39/49/146 47/58/147 48/59/148
f 41/51/149 40/50/150 48/59/151 49/60/152
f 42/52/153 41/51/154 49/60/155 50/61/156
f 43/53/157 42/52/158 50/61/159 51/62/160
f 2/63/161 1/83/162 43/53/163 51/62/164
f 37/55/165 8/84/166 2/63/167 45/64/168
f 46/57/169 45/56/170 52/65/171 53/66/172
f 47/58/173 46/57/174 53/66/175 54/67/176
f 48/59/177 47/58/178 54/67/179 55/68/180
f 49/60/181 48/59/182 55/68/183 56/69/184
f 50/61/185 49/60/186 56/69/187 57/70/188
f 51/62/189 50/61/190 57/70/191 58/71/192
f 2/63/193 51/62/194 58/71/195 59/72/196
f 45/64/197 2/63/198 59/72/199 52/73/200
f 53/66/201 52/65/202 14/74/203 15/75/204
f 54/67/205 53/66/206 15/75/207 16/76/208
f 55/68/209 54/67/210 16/76/211 17/77/212
f 56/69/213 55/68/214 17/77/215 18/78/216
f 57/70/217 56/69/218 18/78/219 19/79/220
f 58/71/221 57/70/222 19/79/223 20/80/224
f 59/72/225 58/71/226 20/80/227 21/81/228
f 52/73/229 59/72/230 21/81/231 14/82/232
f 44/54/233 1/83/234 2/63/235
f 7/45/236 1/83/237 44/54/238
f 8/84/239 7/45/240 44/54/241
f 2/63/242 8/84/243 44/54/244
