# This file uses centimeters as units for non-parametric coordinates.

mtllib shuriken.mtl
g default
v 0.000000 -0.132752 0.132752
v -0.000000 0.000000 0.500000
v 0.000000 0.132752 0.132752
v 0.000000 0.500000 0.000000
v 0.000000 0.132752 -0.132752
v 0.000000 0.000000 -0.500000
v 0.000000 -0.132752 -0.132752
v 0.000000 -0.500000 -0.000000
v 0.064120 0.000000 -0.102953
v 0.064120 0.000000 0.102953
v 0.064120 -0.102953 0.000000
v 0.064120 0.102953 0.000000
v -0.064120 0.000000 -0.102953
v -0.064120 0.000000 0.102953
v -0.064120 -0.102953 0.000000
v -0.064120 0.102953 0.000000
v -0.063357 0.074084 -0.074084
v -0.063357 0.074084 0.074084
v -0.063357 -0.074084 -0.074084
v -0.063357 -0.074084 0.074084
v 0.063357 0.074084 0.074084
v 0.063357 -0.074084 -0.074084
v 0.063357 0.074084 -0.074084
v 0.063357 -0.074084 0.074084
v 0.074120 -0.102911 -0.000099
v 0.073356 -0.074183 -0.074042
v 0.073356 -0.058596 -0.058737
v 0.074120 -0.081447 0.000099
v 0.074120 0.000099 -0.102911
v 0.074120 -0.000099 -0.081447
v 0.073356 0.074042 -0.074183
v 0.073356 0.058737 -0.058596
v 0.074120 0.102911 0.000099
v 0.074120 0.081447 -0.000099
v 0.073356 0.074183 0.074042
v 0.073356 0.058596 0.058737
v 0.074120 -0.000099 0.102911
v 0.074120 0.000099 0.081447
v 0.073356 -0.074042 0.074183
v 0.073356 -0.058737 0.058596
v -0.073356 -0.074042 -0.074183
v -0.074120 -0.102911 0.000099
v -0.074120 -0.081447 -0.000099
v -0.073356 -0.058737 -0.058596
v -0.074120 -0.000099 -0.102911
v -0.074120 0.000099 -0.081447
v -0.073356 0.074183 -0.074042
v -0.073356 0.058596 -0.058737
v -0.074120 0.102911 -0.000099
v -0.074120 0.081447 0.000099
v -0.073356 0.074042 0.074183
v -0.073356 0.058737 0.058596
v -0.074120 0.000099 0.102911
v -0.074120 -0.000099 0.081447
v -0.073356 -0.074183 0.074042
v -0.073356 -0.058596 0.058737
vt 0.265799 0.554994
vt 0.358339 0.298990
vt 0.358339 0.575767
vt 0.306696 0.595891
vt 0.450878 0.554994
vt 0.409982 0.595891
vt 0.286571 0.647534
vt 0.009794 0.647534
vt 0.430106 0.647534
vt 0.706883 0.647534
vt 0.306696 0.699177
vt 0.265799 0.740074
vt 0.409982 0.699177
vt 0.450878 0.740074
vt 0.358339 0.719301
vt 0.358339 0.996078
vt 0.265794 0.555185
vt 0.358334 0.299180
vt 0.358334 0.575958
vt 0.306691 0.596082
vt 0.450873 0.555185
vt 0.409977 0.596082
vt 0.286567 0.647725
vt 0.009790 0.647725
vt 0.430101 0.647725
vt 0.706878 0.647725
vt 0.306691 0.699368
vt 0.265794 0.740264
vt 0.409977 0.699368
vt 0.450873 0.740264
vt 0.358334 0.719492
vt 0.358334 0.996269
vt 0.804384 0.639873
vt 0.929248 0.688386
vt 0.903402 0.714705
vt 0.804050 0.676120
vt 0.977997 0.813821
vt 0.941751 0.813487
vt 0.678949 0.688623
vt 0.705269 0.714468
vt 0.929485 0.938685
vt 0.903165 0.912839
vt 0.630437 0.813487
vt 0.666683 0.813821
vt 0.804050 0.987434
vt 0.804384 0.951188
vt 0.679186 0.938922
vt 0.705032 0.912602
vt 0.678506 0.688562
vt 0.803941 0.639812
vt 0.803607 0.676059
vt 0.704826 0.714407
vt 0.928805 0.688325
vt 0.902959 0.714644
vt 0.629994 0.813425
vt 0.666240 0.813760
vt 0.977554 0.813760
vt 0.941308 0.813425
vt 0.678743 0.938860
vt 0.704589 0.912541
vt 0.929042 0.938623
vt 0.902722 0.912778
vt 0.803607 0.987373
vt 0.803941 0.951126
vt 0.916044 0.399067
vt 0.914000 0.200653
vt 0.940780 0.200764
vt 0.942825 0.398802
vt 0.914000 0.597480
vt 0.940780 0.597745
vt 0.913831 0.597480
vt 0.915875 0.399067
vt 0.942656 0.398802
vt 0.940612 0.597745
vt 0.913831 0.200653
vt 0.940612 0.200764
vt 0.943652 0.200918
vt 0.941608 0.399332
vt 0.914827 0.399597
vt 0.916872 0.200654
vt 0.943652 0.597745
vt 0.916872 0.597634
vt 0.940275 0.399331
vt 0.942319 0.597745
vt 0.915539 0.597634
vt 0.913495 0.399596
vt 0.942319 0.200918
vt 0.915539 0.200653
vt 0.913333 0.597480
vt 0.915377 0.399067
vt 0.942158 0.398802
vt 0.940114 0.597745
vt 0.913333 0.200653
vt 0.940114 0.200764
vt 0.914329 0.597480
vt 0.916373 0.399067
vt 0.943154 0.398802
vt 0.941110 0.597745
vt 0.914329 0.200653
vt 0.941110 0.200764
vt 0.940942 0.399332
vt 0.942986 0.597745
vt 0.916205 0.597634
vt 0.914161 0.399597
vt 0.942986 0.200918
vt 0.916205 0.200653
vt 0.940774 0.399331
vt 0.942818 0.597745
vt 0.916037 0.597634
vt 0.913993 0.399596
vt 0.942818 0.200918
vt 0.916037 0.200653
vt 0.698901 0.266952
vt 0.791015 0.268147
vt 0.790796 0.497843
vt 0.699211 0.499038
vt 0.607317 0.268147
vt 0.607097 0.497843
vt 0.608154 0.268269
vt 0.699739 0.267074
vt 0.700049 0.499160
vt 0.607935 0.497965
vt 0.791853 0.268269
vt 0.791633 0.497965
vt 0.607558 0.268147
vt 0.699143 0.266952
vt 0.699453 0.499038
vt 0.607339 0.497843
vt 0.791257 0.268147
vt 0.791037 0.497843
vt 0.607248 0.268270
vt 0.698833 0.267074
vt 0.699142 0.499160
vt 0.607028 0.497965
vt 0.790946 0.268270
vt 0.790727 0.497965
vn 0.898957 -0.201386 0.388999
vn 0.898957 -0.201386 0.388999
vn 0.898957 -0.201386 0.388999
vn 0.898957 -0.201386 0.388999
vn 0.898957 -0.201386 -0.388999
vn 0.898957 -0.201386 -0.388999
vn 0.898957 -0.201386 -0.388999
vn 0.898957 -0.201386 -0.388999
vn 0.898957 -0.388999 -0.201386
vn 0.898957 -0.388999 -0.201386
vn 0.898957 -0.388999 -0.201386
vn 0.898957 -0.388999 -0.201386
vn 0.898957 0.388999 -0.201386
vn 0.898957 0.388999 -0.201386
vn 0.898957 0.388999 -0.201386
vn 0.898957 0.388999 -0.201386
vn 0.898957 0.201386 -0.388999
vn 0.898957 0.201386 -0.388999
vn 0.898957 0.201386 -0.388999
vn 0.898957 0.201386 -0.388999
vn 0.898957 0.201386 0.388999
vn 0.898957 0.201386 0.388999
vn 0.898957 0.201386 0.388999
vn 0.898957 0.201386 0.388999
vn 0.898957 0.388999 0.201386
vn 0.898957 0.388999 0.201387
vn 0.898957 0.388999 0.201386
vn 0.898957 0.388999 0.201386
vn 0.898957 -0.388999 0.201386
vn 0.898957 -0.388999 0.201386
vn 0.898957 -0.388999 0.201386
vn 0.898957 -0.388999 0.201386
vn -0.898957 -0.201386 -0.388999
vn -0.898957 -0.201386 -0.388999
vn -0.898957 -0.201386 -0.388999
vn -0.898957 -0.201386 -0.388999
vn -0.898957 -0.201386 0.388999
vn -0.898957 -0.201386 0.388999
vn -0.898957 -0.201386 0.388999
vn -0.898957 -0.201386 0.388999
vn -0.898957 -0.388999 0.201386
vn -0.898957 -0.388999 0.201386
vn -0.898957 -0.388999 0.201386
vn -0.898957 -0.388999 0.201386
vn -0.898957 0.388999 0.201386
vn -0.898957 0.388999 0.201386
vn -0.898957 0.388999 0.201386
vn -0.898957 0.388999 0.201386
vn -0.898957 0.201386 0.388999
vn -0.898957 0.201386 0.388999
vn -0.898957 0.201386 0.388999
vn -0.898957 0.201386 0.388999
vn -0.898957 0.201386 -0.388999
vn -0.898957 0.201386 -0.388999
vn -0.898957 0.201386 -0.388999
vn -0.898957 0.201386 -0.388999
vn -0.898957 0.388999 -0.201387
vn -0.898957 0.388999 -0.201387
vn -0.898957 0.388999 -0.201387
vn -0.898957 0.388999 -0.201387
vn -0.898957 -0.388999 -0.201387
vn -0.898957 -0.388999 -0.201387
vn -0.898957 -0.388999 -0.201387
vn -0.898957 -0.388999 -0.201387
vn -0.000514 0.932192 0.361965
vn -0.000514 0.932192 0.361965
vn -0.000514 0.932191 0.361965
vn -0.000514 0.932191 0.361965
vn 0.000514 0.361965 0.932192
vn 0.000514 0.361965 0.932192
vn 0.000514 0.361965 0.932192
vn 0.000514 0.361965 0.932192
vn -0.000514 -0.361965 0.932192
vn -0.000514 -0.361965 0.932192
vn -0.000514 -0.361965 0.932192
vn -0.000514 -0.361965 0.932192
vn 0.000514 -0.932192 0.361965
vn 0.000514 -0.932192 0.361965
vn 0.000514 -0.932192 0.361965
vn 0.000514 -0.932192 0.361965
vn -0.000514 -0.932192 -0.361965
vn -0.000514 -0.932192 -0.361965
vn -0.000514 -0.932192 -0.361965
vn -0.000514 -0.932192 -0.361965
vn 0.000514 -0.361965 -0.932192
vn 0.000514 -0.361965 -0.932192
vn 0.000514 -0.361965 -0.932192
vn 0.000514 -0.361965 -0.932192
vn -0.000514 0.361965 -0.932192
vn -0.000514 0.361965 -0.932192
vn -0.000514 0.361965 -0.932192
vn -0.000514 0.361965 -0.932192
vn 0.000514 0.932192 -0.361965
vn 0.000514 0.932191 -0.361965
vn 0.000514 0.932192 -0.361965
vn 0.000514 0.932192 -0.361965
vn 0.999943 0.004138 -0.009889
vn 0.999943 0.004138 -0.009889
vn 0.999943 0.004138 -0.009889
vn 0.999943 0.004138 -0.009889
vn -0.999943 0.004139 -0.009889
vn -0.999943 0.004139 -0.009889
vn -0.999943 0.004139 -0.009889
vn -0.999943 0.004139 -0.009889
vn 0.999943 -0.009889 0.004138
vn 0.999943 -0.009889 0.004138
vn 0.999943 -0.009889 0.004138
vn 0.999943 -0.009889 0.004138
vn -0.999943 -0.009889 0.004138
vn -0.999943 -0.009889 0.004138
vn -0.999943 -0.009889 0.004138
vn -0.999943 -0.009889 0.004138
vn 0.999943 0.009889 0.004138
vn 0.999943 0.009889 0.004138
vn 0.999943 0.009889 0.004138
vn 0.999943 0.009889 0.004138
vn -0.999943 0.009889 0.004138
vn -0.999943 0.009889 0.004138
vn -0.999943 0.009889 0.004138
vn -0.999943 0.009889 0.004138
vn 0.999943 -0.004138 -0.009889
vn 0.999943 -0.004138 -0.009889
vn 0.999943 -0.004138 -0.009889
vn 0.999943 -0.004138 -0.009889
vn -0.999943 -0.004138 -0.009889
vn -0.999943 -0.004138 -0.009889
vn -0.999943 -0.004138 -0.009889
vn -0.999943 -0.004138 -0.009889
vn 0.999943 -0.004138 0.009889
vn 0.999943 -0.004138 0.009889
vn 0.999943 -0.004138 0.009889
vn 0.999943 -0.004138 0.009889
vn -0.999943 -0.004138 0.009889
vn -0.999943 -0.004138 0.009889
vn -0.999943 -0.004138 0.009889
vn -0.999943 -0.004138 0.009889
vn 0.999943 0.009889 -0.004138
vn 0.999943 0.009889 -0.004138
vn 0.999943 0.009889 -0.004138
vn 0.999943 0.009889 -0.004138
vn -0.999943 0.009889 -0.004138
vn -0.999943 0.009889 -0.004138
vn -0.999943 0.009889 -0.004138
vn -0.999943 0.009889 -0.004138
vn 0.999943 -0.009889 -0.004138
vn 0.999943 -0.009889 -0.004138
vn 0.999943 -0.009889 -0.004138
vn 0.999943 -0.009889 -0.004138
vn -0.999943 -0.009889 -0.004138
vn -0.999943 -0.009889 -0.004138
vn -0.999943 -0.009889 -0.004138
vn -0.999943 -0.009889 -0.004138
vn 0.999943 0.004139 0.009889
vn 0.999943 0.004139 0.009889
vn 0.999943 0.004139 0.009889
vn 0.999943 0.004139 0.009889
vn -0.999943 0.004138 0.009889
vn -0.999943 0.004138 0.009889
vn -0.999943 0.004138 0.009889
vn -0.999943 0.004138 0.009889
vn -0.003723 -0.931944 -0.362584
vn -0.003723 -0.931944 -0.362584
vn -0.003723 -0.931944 -0.362584
vn -0.003723 -0.931944 -0.362584
vn 0.003856 -0.362699 -0.931899
vn 0.003856 -0.362699 -0.931898
vn 0.003856 -0.362699 -0.931898
vn 0.003856 -0.362699 -0.931898
vn -0.003722 0.362583 -0.931944
vn -0.003722 0.362583 -0.931944
vn -0.003722 0.362583 -0.931944
vn -0.003722 0.362583 -0.931944
vn 0.003857 0.931898 -0.362699
vn 0.003857 0.931898 -0.362699
vn 0.003857 0.931898 -0.362699
vn 0.003857 0.931898 -0.362699
vn -0.003723 0.931944 0.362584
vn -0.003723 0.931944 0.362584
vn -0.003723 0.931944 0.362584
vn -0.003723 0.931944 0.362584
vn 0.003856 0.362698 0.931899
vn 0.003856 0.362698 0.931899
vn 0.003856 0.362698 0.931899
vn 0.003856 0.362699 0.931899
vn -0.003723 -0.362583 0.931944
vn -0.003723 -0.362583 0.931944
vn -0.003723 -0.362583 0.931944
vn -0.003723 -0.362583 0.931944
vn 0.003857 -0.931898 0.362699
vn 0.003857 -0.931898 0.362699
vn 0.003857 -0.931898 0.362699
vn 0.003857 -0.931898 0.362699
vn -0.003857 -0.931898 -0.362699
vn -0.003857 -0.931899 -0.362699
vn -0.003857 -0.931898 -0.362699
vn -0.003857 -0.931899 -0.362699
vn 0.003723 -0.362583 -0.931944
vn 0.003723 -0.362583 -0.931944
vn 0.003723 -0.362583 -0.931944
vn 0.003723 -0.362583 -0.931944
vn -0.003856 0.362699 -0.931899
vn -0.003856 0.362699 -0.931898
vn -0.003856 0.362699 -0.931898
vn -0.003856 0.362699 -0.931899
vn 0.003723 0.931944 -0.362584
vn 0.003723 0.931944 -0.362584
vn 0.003723 0.931944 -0.362584
vn 0.003723 0.931944 -0.362584
vn -0.003857 0.931899 0.362699
vn -0.003857 0.931899 0.362699
vn -0.003857 0.931899 0.362699
vn -0.003857 0.931899 0.362698
vn 0.003722 0.362584 0.931944
vn 0.003722 0.362584 0.931944
vn 0.003722 0.362584 0.931944
vn 0.003722 0.362584 0.931944
vn -0.003856 -0.362699 0.931898
vn -0.003856 -0.362699 0.931898
vn -0.003856 -0.362699 0.931898
vn -0.003856 -0.362699 0.931898
vn 0.003723 -0.931944 0.362584
vn 0.003723 -0.931944 0.362584
vn 0.003723 -0.931944 0.362584
vn 0.003723 -0.931944 0.362584
s off
g shuriken
usemtl aiStandardSurface1SG
f 1/1/1 8/2/2 11/3/3 24/4/4
f 8/2/5 7/5/6 22/6/7 11/3/8
f 9/9/9 22/6/10 7/5/11 6/10/12
f 23/13/13 9/9/14 6/10/15 5/14/16
f 12/15/17 23/13/18 5/14/19 4/16/20
f 3/12/21 21/11/22 12/15/23 4/16/24
f 2/8/25 10/7/26 21/11/27 3/12/28
f 1/1/29 24/4/30 10/7/31 2/8/32
f 7/17/33 8/18/34 15/19/35 19/20/36
f 8/18/37 1/21/38 20/22/39 15/19/40
f 14/25/41 20/22/42 1/21/43 2/26/44
f 18/29/45 14/25/46 2/26/47 3/30/48
f 16/31/49 18/29/50 3/30/51 4/32/52
f 5/28/53 17/27/54 16/31/55 4/32/56
f 6/24/57 13/23/58 17/27/59 5/28/60
f 7/17/61 19/20/62 13/23/63 6/24/64
f 28/113/65 27/114/66 44/115/67 43/116/68
f 27/125/69 30/126/70 46/127/71 44/128/72
f 30/126/73 32/129/74 48/130/75 46/127/76
f 32/119/77 34/120/78 50/121/79 48/122/80
f 34/120/81 36/123/82 52/124/83 50/121/84
f 36/131/85 38/132/86 54/133/87 52/134/88
f 38/132/89 40/135/90 56/136/91 54/133/92
f 40/117/93 28/113/94 43/116/95 56/118/96
f 25/33/97 26/34/98 27/35/99 28/36/100
f 41/49/101 42/50/102 43/51/103 44/52/104
f 26/34/105 29/37/106 30/38/107 27/35/108
f 45/55/109 41/49/110 44/52/111 46/56/112
f 29/37/113 31/41/114 32/42/115 30/38/116
f 47/59/117 45/55/118 46/56/119 48/60/120
f 31/41/121 33/45/122 34/46/123 32/42/124
f 49/63/125 47/59/126 48/60/127 50/64/128
f 33/45/129 35/47/130 36/48/131 34/46/132
f 51/61/133 49/63/134 50/64/135 52/62/136
f 35/47/137 37/43/138 38/44/139 36/48/140
f 53/57/141 51/61/142 52/62/143 54/58/144
f 37/43/145 39/39/146 40/40/147 38/44/148
f 55/53/149 53/57/150 54/58/151 56/54/152
f 39/39/153 25/33/154 28/36/155 40/40/156
f 42/50/157 55/53/158 56/54/159 43/51/160
f 11/65/161 22/66/162 26/67/163 25/68/164
f 22/89/165 9/90/166 29/91/167 26/92/168
f 9/90/169 23/93/170 31/94/171 29/91/172
f 23/71/173 12/72/174 33/73/175 31/74/176
f 12/72/177 21/75/178 35/76/179 33/73/180
f 21/95/181 10/96/182 37/97/183 35/98/184
f 10/96/185 24/99/186 39/100/187 37/97/188
f 24/69/189 11/65/190 25/68/191 39/70/192
f 19/77/193 15/78/194 42/79/195 41/80/196
f 13/101/197 19/102/198 41/103/199 45/104/200
f 17/105/201 13/101/202 45/104/203 47/106/204
f 16/83/205 17/84/206 47/85/207 49/86/208
f 18/87/209 16/83/210 49/86/211 51/88/212
f 14/107/213 18/108/214 51/109/215 53/110/216
f 20/111/217 14/107/218 53/110/219 55/112/220
f 15/78/221 20/81/222 55/82/223 42/79/224
